<svg xmlns="http://www.w3.org/2000/svg" viewBox="0 0 48 48" xmlns:xlink="http://www.w3.org/1999/xlink" xml:space="preserve" width="100%" height="100%"><path xmlns="http://www.w3.org/2000/svg" d="M24 38a2 2 0 1 0-2-2 2 2 0 0 0 2 2m10 0a2 2 0 1 0-2-2 2 2 0 0 0 2 2m0-8a2 2 0 1 0-2-2 2 2 0 0 0 2 2m-10 0a2 2 0 1 0-2-2 2 2 0 0 0 2 2M38 6h-2V4a2 2 0 0 0-4 0v2H16V4a2 2 0 0 0-4 0v2h-2a6 6 0 0 0-6 6v28a6 6 0 0 0 6 6h28a6 6 0 0 0 6-6V12a6 6 0 0 0-6-6m2 34a2 2 0 0 1-2 2H10a2 2 0 0 1-2-2V22h32zm0-22H8v-6a2 2 0 0 1 2-2h2v2a2 2 0 0 0 4 0v-2h16v2a2 2 0 0 0 4 0v-2h2a2 2 0 0 1 2 2zM14 30a2 2 0 1 0-2-2 2 2 0 0 0 2 2m0 8a2 2 0 1 0-2-2 2 2 0 0 0 2 2"></path></svg>