<svg xmlns="http://www.w3.org/2000/svg" viewBox="0 0 48 48" xmlns:xlink="http://www.w3.org/1999/xlink" xml:space="preserve" width="100%" height="100%"><path xmlns="http://www.w3.org/2000/svg" d="M19.946 36H22V26h4v10h2.054c.264-2.404 1.49-4.388 3.48-6.554.226-.244 1.664-1.734 1.834-1.946a12 12 0 1 0-18.74-.004c.172.214 1.614 1.706 1.836 1.948 1.992 2.168 3.218 4.152 3.482 6.556M20 40v2h8v-2zm-8.492-10a16 16 0 1 1 24.98.004C35.248 31.548 32 34 32 37v5a4 4 0 0 1-4 4h-8a4 4 0 0 1-4-4v-5c0-3-3.25-5.452-4.492-7"></path></svg>