<svg xmlns="http://www.w3.org/2000/svg" viewBox="0 0 48 48" xmlns:xlink="http://www.w3.org/1999/xlink" xml:space="preserve" width="100%" height="100%"><path xmlns="http://www.w3.org/2000/svg" d="m41.42 18.58-12-12a2 2 0 0 0-.64-.42A2.2 2.2 0 0 0 28 6H12a6 6 0 0 0-6 6v24a6 6 0 0 0 6 6h24a6 6 0 0 0 6-6V20a2 2 0 0 0-.58-1.42M18 10h8v4h-8zm12 28H18v-6a2 2 0 0 1 2-2h8a2 2 0 0 1 2 2zm8-2a2 2 0 0 1-2 2h-2v-6a6 6 0 0 0-6-6h-8a6 6 0 0 0-6 6v6h-2a2 2 0 0 1-2-2V12a2 2 0 0 1 2-2h2v6a2 2 0 0 0 2 2h12a2 2 0 0 0 2-2v-3.18l8 8z"></path></svg>